<?xml version="1.0" encoding="iso-8859-1"?>
<!-- Generator: Adobe Illustrator 19.0.0, SVG Export Plug-In . SVG Version: 6.00 Build 0)  -->
<svg version="1.1" id="Layer_1" xmlns="http://www.w3.org/2000/svg" xmlns:xlink="http://www.w3.org/1999/xlink" x="0px" y="0px"
	 viewBox="0 0 512 512" style="enable-background:new 0 0 512 512;" xml:space="preserve">
<g>
	<g>
		<path d="M437.019,74.981C388.668,26.628,324.379,0,256,0S123.332,26.628,74.981,74.981C26.629,123.333,0,187.62,0,256
			c0,68.38,26.628,132.668,74.981,181.019C123.333,485.371,187.621,512,256,512s132.668-26.628,181.019-74.981
			C485.371,388.667,512,324.38,512,256S485.372,123.332,437.019,74.981z M256,480.653C132.125,480.653,31.347,379.874,31.347,256
			S132.125,31.347,256,31.347S480.653,132.126,480.653,256S379.875,480.653,256,480.653z"/>
	</g>
</g>
<g>
	<g>
		<path d="M411.16,167.337l-66.497-66.496L256,189.503l-88.663-88.663l-66.497,66.496L189.503,256l-88.663,88.663l66.497,66.497
			L256,322.497l88.663,88.663l66.497-66.497L322.497,256L411.16,167.337z M366.828,344.663l-22.167,22.165L256,278.165
			l-88.663,88.663l-22.166-22.165L233.834,256l-88.663-88.663l22.166-22.165L256,233.835l88.663-88.663l22.166,22.165L278.166,256
			L366.828,344.663z"/>
	</g>
</g>
<g>
</g>
<g>
</g>
<g>
</g>
<g>
</g>
<g>
</g>
<g>
</g>
<g>
</g>
<g>
</g>
<g>
</g>
<g>
</g>
<g>
</g>
<g>
</g>
<g>
</g>
<g>
</g>
<g>
</g>
</svg>
